<?xml version="1.0" encoding="iso-8859-1"?>
<!-- Generator: Adobe Illustrator 16.0.0, SVG Export Plug-In . SVG Version: 6.00 Build 0)  -->
<!DOCTYPE svg PUBLIC "-//W3C//DTD SVG 1.1//EN" "http://www.w3.org/Graphics/SVG/1.1/DTD/svg11.dtd">
<svg version="1.1" id="Capa_1" xmlns="http://www.w3.org/2000/svg" xmlns:xlink="http://www.w3.org/1999/xlink" x="0px" y="0px"
	 width="92.565px" height="92.565px" viewBox="0 0 92.565 92.565" style="enable-background:new 0 0 92.565 92.565;"
	 xml:space="preserve">
<g>
	<path d="M43.824,3.779v26.069c0,1.389-4.302,4.778-7.178,6.89v7.688c1.48,0.512,2.55,1.902,2.55,3.557v40.804
		c0,2.086-1.691,3.778-3.777,3.778h-2.645c-2.086,0-3.779-1.692-3.779-3.778V47.982c0-1.654,1.071-3.045,2.551-3.557v-7.606
		c-3.055-2.104-7.745-5.565-7.745-6.972V3.779C23.801,1.692,24.812,0,27.07,0h1.348v27.196c0,0.647,0.823,1.17,1.839,1.17
		c1.015,0,1.838-0.523,1.838-1.17V0h3.406v27.196c0,0.647,0.823,1.17,1.839,1.17s1.839-0.523,1.839-1.17V0h0.558
		C41.994,0,43.824,1.692,43.824,3.779z M64.896,0.666c0,0-10.053,6.573-10.053,23.973c0,1.445,0,2.57,0,3.442
		c0,17.171,3.771,24.735,6.305,29.113v32.578c0,1.542,1.25,2.792,2.793,2.792h1.954c1.542,0,2.794-1.25,2.794-2.792V55.555
		c0.047-0.244,0.075-0.498,0.075-0.756V4.532C68.763,2.396,67.926-0.559,64.896,0.666z"/>
</g>
<g>
</g>
<g>
</g>
<g>
</g>
<g>
</g>
<g>
</g>
<g>
</g>
<g>
</g>
<g>
</g>
<g>
</g>
<g>
</g>
<g>
</g>
<g>
</g>
<g>
</g>
<g>
</g>
<g>
</g>
</svg>
